<mxfile host="app.diagrams.net" modified="2020-10-13T07:20:05.362Z" agent="5.0 (Windows NT 10.0; Win64; x64) AppleWebKit/537.36 (KHTML, like Gecko) Chrome/86.0.4240.75 Safari/537.36 Edg/86.0.622.38" etag="ZJEO-RT_WSq_eSDTmTh9" version="13.7.7" type="github">
  <diagram id="qlqoAUwO8wf2HD8Hyaqa" name="Page-1">
    <mxGraphModel dx="1278" dy="532" grid="1" gridSize="10" guides="1" tooltips="1" connect="1" arrows="1" fold="1" page="1" pageScale="1" pageWidth="3300" pageHeight="4681" math="0" shadow="0">
      <root>
        <mxCell id="0" />
        <mxCell id="1" parent="0" />
        <mxCell id="2FLGZrBYpvVL2sLqC-vN-28" style="edgeStyle=orthogonalEdgeStyle;rounded=0;orthogonalLoop=1;jettySize=auto;html=1;exitX=0.5;exitY=0;exitDx=0;exitDy=0;entryX=0.998;entryY=-0.1;entryDx=0;entryDy=0;entryPerimeter=0;" edge="1" parent="1" source="2FLGZrBYpvVL2sLqC-vN-32" target="2FLGZrBYpvVL2sLqC-vN-24">
          <mxGeometry relative="1" as="geometry">
            <mxPoint x="590" y="310" as="sourcePoint" />
          </mxGeometry>
        </mxCell>
        <mxCell id="2FLGZrBYpvVL2sLqC-vN-1" value="DeckFacade" style="swimlane;fontStyle=1;align=center;verticalAlign=top;childLayout=stackLayout;horizontal=1;startSize=26;horizontalStack=0;resizeParent=1;resizeParentMax=0;resizeLast=0;collapsible=1;marginBottom=0;" vertex="1" parent="1">
          <mxGeometry x="430" y="80" width="320" height="138" as="geometry" />
        </mxCell>
        <mxCell id="2FLGZrBYpvVL2sLqC-vN-2" value="-rand : double" style="text;strokeColor=none;fillColor=none;align=left;verticalAlign=top;spacingLeft=4;spacingRight=4;overflow=hidden;rotatable=0;points=[[0,0.5],[1,0.5]];portConstraint=eastwest;" vertex="1" parent="2FLGZrBYpvVL2sLqC-vN-1">
          <mxGeometry y="26" width="320" height="26" as="geometry" />
        </mxCell>
        <mxCell id="2FLGZrBYpvVL2sLqC-vN-5" value="-" style="text;strokeColor=none;fillColor=none;align=left;verticalAlign=top;spacingLeft=4;spacingRight=4;overflow=hidden;rotatable=0;points=[[0,0.5],[1,0.5]];portConstraint=eastwest;" vertex="1" parent="2FLGZrBYpvVL2sLqC-vN-1">
          <mxGeometry y="52" width="320" height="26" as="geometry" />
        </mxCell>
        <mxCell id="2FLGZrBYpvVL2sLqC-vN-3" value="" style="line;strokeWidth=1;fillColor=none;align=left;verticalAlign=middle;spacingTop=-1;spacingLeft=3;spacingRight=3;rotatable=0;labelPosition=right;points=[];portConstraint=eastwest;" vertex="1" parent="2FLGZrBYpvVL2sLqC-vN-1">
          <mxGeometry y="78" width="320" height="8" as="geometry" />
        </mxCell>
        <mxCell id="2FLGZrBYpvVL2sLqC-vN-4" value="-getRand(): double" style="text;strokeColor=none;fillColor=none;align=left;verticalAlign=top;spacingLeft=4;spacingRight=4;overflow=hidden;rotatable=0;points=[[0,0.5],[1,0.5]];portConstraint=eastwest;" vertex="1" parent="2FLGZrBYpvVL2sLqC-vN-1">
          <mxGeometry y="86" width="320" height="26" as="geometry" />
        </mxCell>
        <mxCell id="2FLGZrBYpvVL2sLqC-vN-24" value="-drawCard(rand): Card" style="text;strokeColor=none;fillColor=none;align=left;verticalAlign=top;spacingLeft=4;spacingRight=4;overflow=hidden;rotatable=0;points=[[0,0.5],[1,0.5]];portConstraint=eastwest;" vertex="1" parent="2FLGZrBYpvVL2sLqC-vN-1">
          <mxGeometry y="112" width="320" height="26" as="geometry" />
        </mxCell>
        <mxCell id="2FLGZrBYpvVL2sLqC-vN-29" value="5" style="text;html=1;align=center;verticalAlign=middle;resizable=0;points=[];autosize=1;" vertex="1" parent="1">
          <mxGeometry x="760" y="170" width="20" height="20" as="geometry" />
        </mxCell>
        <mxCell id="2FLGZrBYpvVL2sLqC-vN-32" value="JailCard" style="swimlane;fontStyle=1;align=center;verticalAlign=top;childLayout=stackLayout;horizontal=1;startSize=26;horizontalStack=0;resizeParent=1;resizeParentMax=0;resizeLast=0;collapsible=1;marginBottom=0;" vertex="1" parent="1">
          <mxGeometry x="500" y="330" width="160" height="60" as="geometry" />
        </mxCell>
        <mxCell id="2FLGZrBYpvVL2sLqC-vN-34" value="" style="line;strokeWidth=1;fillColor=none;align=left;verticalAlign=middle;spacingTop=-1;spacingLeft=3;spacingRight=3;rotatable=0;labelPosition=right;points=[];portConstraint=eastwest;" vertex="1" parent="2FLGZrBYpvVL2sLqC-vN-32">
          <mxGeometry y="26" width="160" height="8" as="geometry" />
        </mxCell>
        <mxCell id="2FLGZrBYpvVL2sLqC-vN-35" value="+action(Player, Square): void" style="text;strokeColor=none;fillColor=none;align=left;verticalAlign=top;spacingLeft=4;spacingRight=4;overflow=hidden;rotatable=0;points=[[0,0.5],[1,0.5]];portConstraint=eastwest;" vertex="1" parent="2FLGZrBYpvVL2sLqC-vN-32">
          <mxGeometry y="34" width="160" height="26" as="geometry" />
        </mxCell>
        <mxCell id="2FLGZrBYpvVL2sLqC-vN-48" style="edgeStyle=orthogonalEdgeStyle;rounded=0;orthogonalLoop=1;jettySize=auto;html=1;exitX=0.75;exitY=0;exitDx=0;exitDy=0;entryX=0;entryY=0.25;entryDx=0;entryDy=0;endArrow=block;endFill=0;" edge="1" parent="1" source="2FLGZrBYpvVL2sLqC-vN-36" target="2FLGZrBYpvVL2sLqC-vN-32">
          <mxGeometry relative="1" as="geometry" />
        </mxCell>
        <mxCell id="2FLGZrBYpvVL2sLqC-vN-36" value="JailExcemptionCard" style="swimlane;fontStyle=1;align=center;verticalAlign=top;childLayout=stackLayout;horizontal=1;startSize=26;horizontalStack=0;resizeParent=1;resizeParentMax=0;resizeLast=0;collapsible=1;marginBottom=0;" vertex="1" parent="1">
          <mxGeometry x="70" y="470" width="160" height="34" as="geometry" />
        </mxCell>
        <mxCell id="2FLGZrBYpvVL2sLqC-vN-38" value="" style="line;strokeWidth=1;fillColor=none;align=left;verticalAlign=middle;spacingTop=-1;spacingLeft=3;spacingRight=3;rotatable=0;labelPosition=right;points=[];portConstraint=eastwest;" vertex="1" parent="2FLGZrBYpvVL2sLqC-vN-36">
          <mxGeometry y="26" width="160" height="8" as="geometry" />
        </mxCell>
        <mxCell id="2FLGZrBYpvVL2sLqC-vN-49" style="edgeStyle=orthogonalEdgeStyle;rounded=0;orthogonalLoop=1;jettySize=auto;html=1;exitX=0.5;exitY=0;exitDx=0;exitDy=0;endArrow=block;endFill=0;" edge="1" parent="1" source="2FLGZrBYpvVL2sLqC-vN-40" target="2FLGZrBYpvVL2sLqC-vN-35">
          <mxGeometry relative="1" as="geometry" />
        </mxCell>
        <mxCell id="2FLGZrBYpvVL2sLqC-vN-40" value="GoToJailCard" style="swimlane;fontStyle=1;align=center;verticalAlign=top;childLayout=stackLayout;horizontal=1;startSize=26;horizontalStack=0;resizeParent=1;resizeParentMax=0;resizeLast=0;collapsible=1;marginBottom=0;" vertex="1" parent="1">
          <mxGeometry x="480" y="496" width="160" height="34" as="geometry" />
        </mxCell>
        <mxCell id="2FLGZrBYpvVL2sLqC-vN-42" value="" style="line;strokeWidth=1;fillColor=none;align=left;verticalAlign=middle;spacingTop=-1;spacingLeft=3;spacingRight=3;rotatable=0;labelPosition=right;points=[];portConstraint=eastwest;" vertex="1" parent="2FLGZrBYpvVL2sLqC-vN-40">
          <mxGeometry y="26" width="160" height="8" as="geometry" />
        </mxCell>
        <mxCell id="2FLGZrBYpvVL2sLqC-vN-50" style="edgeStyle=orthogonalEdgeStyle;rounded=0;orthogonalLoop=1;jettySize=auto;html=1;exitX=0.5;exitY=0;exitDx=0;exitDy=0;entryX=1;entryY=0.25;entryDx=0;entryDy=0;endArrow=block;endFill=0;" edge="1" parent="1" source="2FLGZrBYpvVL2sLqC-vN-44" target="2FLGZrBYpvVL2sLqC-vN-32">
          <mxGeometry relative="1" as="geometry" />
        </mxCell>
        <mxCell id="2FLGZrBYpvVL2sLqC-vN-44" value="PayJailFeeCard" style="swimlane;fontStyle=1;align=center;verticalAlign=top;childLayout=stackLayout;horizontal=1;startSize=26;horizontalStack=0;resizeParent=1;resizeParentMax=0;resizeLast=0;collapsible=1;marginBottom=0;" vertex="1" parent="1">
          <mxGeometry x="960" y="468" width="160" height="34" as="geometry" />
        </mxCell>
        <mxCell id="2FLGZrBYpvVL2sLqC-vN-46" value="" style="line;strokeWidth=1;fillColor=none;align=left;verticalAlign=middle;spacingTop=-1;spacingLeft=3;spacingRight=3;rotatable=0;labelPosition=right;points=[];portConstraint=eastwest;" vertex="1" parent="2FLGZrBYpvVL2sLqC-vN-44">
          <mxGeometry y="26" width="160" height="8" as="geometry" />
        </mxCell>
        <mxCell id="2FLGZrBYpvVL2sLqC-vN-51" value="1" style="text;html=1;align=center;verticalAlign=middle;resizable=0;points=[];autosize=1;" vertex="1" parent="1">
          <mxGeometry x="460" y="320" width="20" height="20" as="geometry" />
        </mxCell>
        <mxCell id="2FLGZrBYpvVL2sLqC-vN-52" value="2" style="text;html=1;align=center;verticalAlign=middle;resizable=0;points=[];autosize=1;" vertex="1" parent="1">
          <mxGeometry x="460" y="390" width="20" height="20" as="geometry" />
        </mxCell>
        <mxCell id="2FLGZrBYpvVL2sLqC-vN-53" value="2" style="text;html=1;align=center;verticalAlign=middle;resizable=0;points=[];autosize=1;" vertex="1" parent="1">
          <mxGeometry x="660" y="350" width="20" height="20" as="geometry" />
        </mxCell>
        <mxCell id="2FLGZrBYpvVL2sLqC-vN-54" value="GoToJailSquare" style="swimlane;fontStyle=1;align=center;verticalAlign=top;childLayout=stackLayout;horizontal=1;startSize=26;horizontalStack=0;resizeParent=1;resizeParentMax=0;resizeLast=0;collapsible=1;marginBottom=0;" vertex="1" parent="1">
          <mxGeometry x="70" y="90" width="160" height="86" as="geometry" />
        </mxCell>
        <mxCell id="2FLGZrBYpvVL2sLqC-vN-55" value="+ field: type" style="text;strokeColor=none;fillColor=none;align=left;verticalAlign=top;spacingLeft=4;spacingRight=4;overflow=hidden;rotatable=0;points=[[0,0.5],[1,0.5]];portConstraint=eastwest;" vertex="1" parent="2FLGZrBYpvVL2sLqC-vN-54">
          <mxGeometry y="26" width="160" height="26" as="geometry" />
        </mxCell>
        <mxCell id="2FLGZrBYpvVL2sLqC-vN-56" value="" style="line;strokeWidth=1;fillColor=none;align=left;verticalAlign=middle;spacingTop=-1;spacingLeft=3;spacingRight=3;rotatable=0;labelPosition=right;points=[];portConstraint=eastwest;" vertex="1" parent="2FLGZrBYpvVL2sLqC-vN-54">
          <mxGeometry y="52" width="160" height="8" as="geometry" />
        </mxCell>
        <mxCell id="2FLGZrBYpvVL2sLqC-vN-57" value="+ method(type): type" style="text;strokeColor=none;fillColor=none;align=left;verticalAlign=top;spacingLeft=4;spacingRight=4;overflow=hidden;rotatable=0;points=[[0,0.5],[1,0.5]];portConstraint=eastwest;" vertex="1" parent="2FLGZrBYpvVL2sLqC-vN-54">
          <mxGeometry y="60" width="160" height="26" as="geometry" />
        </mxCell>
        <mxCell id="2FLGZrBYpvVL2sLqC-vN-58" style="edgeStyle=orthogonalEdgeStyle;rounded=0;orthogonalLoop=1;jettySize=auto;html=1;exitX=0;exitY=0.5;exitDx=0;exitDy=0;entryX=1;entryY=0.5;entryDx=0;entryDy=0;endArrow=classicThin;endFill=1;" edge="1" parent="1" source="2FLGZrBYpvVL2sLqC-vN-2" target="2FLGZrBYpvVL2sLqC-vN-55">
          <mxGeometry relative="1" as="geometry" />
        </mxCell>
        <mxCell id="2FLGZrBYpvVL2sLqC-vN-59" value="RegularSquare" style="swimlane;fontStyle=3;align=center;verticalAlign=top;childLayout=stackLayout;horizontal=1;startSize=26;horizontalStack=0;resizeParent=1;resizeParentMax=0;resizeLast=0;collapsible=1;marginBottom=0;" vertex="1" parent="1">
          <mxGeometry x="480" y="680" width="160" height="60" as="geometry" />
        </mxCell>
        <mxCell id="2FLGZrBYpvVL2sLqC-vN-61" value="" style="line;strokeWidth=1;fillColor=none;align=left;verticalAlign=middle;spacingTop=-1;spacingLeft=3;spacingRight=3;rotatable=0;labelPosition=right;points=[];portConstraint=eastwest;" vertex="1" parent="2FLGZrBYpvVL2sLqC-vN-59">
          <mxGeometry y="26" width="160" height="8" as="geometry" />
        </mxCell>
        <mxCell id="2FLGZrBYpvVL2sLqC-vN-62" value="+landedOn(Player): void" style="text;strokeColor=none;fillColor=none;align=left;verticalAlign=top;spacingLeft=4;spacingRight=4;overflow=hidden;rotatable=0;points=[[0,0.5],[1,0.5]];portConstraint=eastwest;" vertex="1" parent="2FLGZrBYpvVL2sLqC-vN-59">
          <mxGeometry y="34" width="160" height="26" as="geometry" />
        </mxCell>
        <mxCell id="2FLGZrBYpvVL2sLqC-vN-63" value="BaseSquare" style="swimlane;fontStyle=1;align=center;verticalAlign=top;childLayout=stackLayout;horizontal=1;startSize=26;horizontalStack=0;resizeParent=1;resizeParentMax=0;resizeLast=0;collapsible=1;marginBottom=0;" vertex="1" parent="1">
          <mxGeometry x="340" y="820" width="160" height="34" as="geometry" />
        </mxCell>
        <mxCell id="2FLGZrBYpvVL2sLqC-vN-65" value="" style="line;strokeWidth=1;fillColor=none;align=left;verticalAlign=middle;spacingTop=-1;spacingLeft=3;spacingRight=3;rotatable=0;labelPosition=right;points=[];portConstraint=eastwest;" vertex="1" parent="2FLGZrBYpvVL2sLqC-vN-63">
          <mxGeometry y="26" width="160" height="8" as="geometry" />
        </mxCell>
        <mxCell id="2FLGZrBYpvVL2sLqC-vN-67" value="BuildingDecorator" style="swimlane;fontStyle=1;align=center;verticalAlign=top;childLayout=stackLayout;horizontal=1;startSize=26;horizontalStack=0;resizeParent=1;resizeParentMax=0;resizeLast=0;collapsible=1;marginBottom=0;" vertex="1" parent="1">
          <mxGeometry x="680" y="820" width="160" height="112" as="geometry" />
        </mxCell>
        <mxCell id="2FLGZrBYpvVL2sLqC-vN-68" value="+hasGarden: bool" style="text;strokeColor=none;fillColor=none;align=left;verticalAlign=top;spacingLeft=4;spacingRight=4;overflow=hidden;rotatable=0;points=[[0,0.5],[1,0.5]];portConstraint=eastwest;" vertex="1" parent="2FLGZrBYpvVL2sLqC-vN-67">
          <mxGeometry y="26" width="160" height="26" as="geometry" />
        </mxCell>
        <mxCell id="2FLGZrBYpvVL2sLqC-vN-71" value="+visited: int" style="text;strokeColor=none;fillColor=none;align=left;verticalAlign=top;spacingLeft=4;spacingRight=4;overflow=hidden;rotatable=0;points=[[0,0.5],[1,0.5]];portConstraint=eastwest;" vertex="1" parent="2FLGZrBYpvVL2sLqC-vN-67">
          <mxGeometry y="52" width="160" height="26" as="geometry" />
        </mxCell>
        <mxCell id="2FLGZrBYpvVL2sLqC-vN-69" value="" style="line;strokeWidth=1;fillColor=none;align=left;verticalAlign=middle;spacingTop=-1;spacingLeft=3;spacingRight=3;rotatable=0;labelPosition=right;points=[];portConstraint=eastwest;" vertex="1" parent="2FLGZrBYpvVL2sLqC-vN-67">
          <mxGeometry y="78" width="160" height="8" as="geometry" />
        </mxCell>
        <mxCell id="2FLGZrBYpvVL2sLqC-vN-70" value="+landedOn(Player): void" style="text;strokeColor=none;fillColor=none;align=left;verticalAlign=top;spacingLeft=4;spacingRight=4;overflow=hidden;rotatable=0;points=[[0,0.5],[1,0.5]];portConstraint=eastwest;" vertex="1" parent="2FLGZrBYpvVL2sLqC-vN-67">
          <mxGeometry y="86" width="160" height="26" as="geometry" />
        </mxCell>
      </root>
    </mxGraphModel>
  </diagram>
</mxfile>
